inDegrees=no
num_controls=7
num_derivatives=13
num_iterations=75
num_multipliers=7
num_parameters=0
num_slacks=7
num_states=26
objective=0.332972
objective_accelerations=0.036349
objective_balance=0.001182
objective_effort=0.026637
objective_height=0.267147
objective_ligament=0.001656
solver_duration=794.738582
status=Solve_Succeeded
success=true
DataType=double
version=3
OpenSimVersion=4.5
endheader
time	/jointset/ground_pelvis/pelvis_tilt/value	/jointset/ground_pelvis/pelvis_tx/value	/jointset/ground_pelvis/pelvis_ty/value	/jointset/hip_r/hip_flexion_r/value	/jointset/hip_r/hip_adduction_r/value	/jointset/hip_r/hip_rotation_r/value	/jointset/back/lumbar_extension/value	/jointset/patellofemoral_r/patellar_flexion_r/value	/jointset/knee_r/knee_flexion_r/value	/jointset/knee_r/knee_adduction_r/value	/jointset/knee_r/knee_rotation_r/value	/jointset/ankle_r/ankle_angle_r/value	/jointset/subtalar_r/subtalar_angle_r/value	/jointset/ground_pelvis/pelvis_tilt/speed	/jointset/ground_pelvis/pelvis_tx/speed	/jointset/ground_pelvis/pelvis_ty/speed	/jointset/hip_r/hip_flexion_r/speed	/jointset/hip_r/hip_adduction_r/speed	/jointset/hip_r/hip_rotation_r/speed	/jointset/back/lumbar_extension/speed	/jointset/patellofemoral_r/patellar_flexion_r/speed	/jointset/knee_r/knee_flexion_r/speed	/jointset/knee_r/knee_adduction_r/speed	/jointset/knee_r/knee_rotation_r/speed	/jointset/ankle_r/ankle_angle_r/speed	/jointset/subtalar_r/subtalar_angle_r/speed	/forceset/tau_hip_flexion_r	/forceset/tau_hip_adduction_r	/forceset/tau_hip_rotation_r	/forceset/tau_knee_flexion_r	/forceset/tau_ankle_angle_r	/forceset/tau_subtalar_angle_r	/forceset/tau_lumbar_extension	lambda_cid13_p0	lambda_cid14_p0	lambda_cid14_p1	lambda_cid14_p2	lambda_cid14_p3	lambda_cid14_p4	lambda_cid14_p5	/jointset/ground_pelvis/pelvis_tilt/accel	/jointset/ground_pelvis/pelvis_tx/accel	/jointset/ground_pelvis/pelvis_ty/accel	/jointset/hip_r/hip_flexion_r/accel	/jointset/hip_r/hip_adduction_r/accel	/jointset/hip_r/hip_rotation_r/accel	/jointset/back/lumbar_extension/accel	/jointset/patellofemoral_r/patellar_flexion_r/accel	/jointset/knee_r/knee_flexion_r/accel	/jointset/knee_r/knee_adduction_r/accel	/jointset/knee_r/knee_rotation_r/accel	/jointset/ankle_r/ankle_angle_r/accel	/jointset/subtalar_r/subtalar_angle_r/accel	gamma_cid13_p0	gamma_cid14_p0	gamma_cid14_p1	gamma_cid14_p2	gamma_cid14_p3	gamma_cid14_p4	gamma_cid14_p5
1.5	-0.1076183579213904	0.04079909335741309	0.8182354229333149	0.8184802298259983	-0.2397286129862728	-0.08977155879257304	-0.6250202367220303	0.9324068278441877	0.9324068278443456	0.01574788657223056	0.1745196463621888	0.3032930914220937	0.1153234714058626	0.5173606438684072	0.2175044766733583	0.4982056768684377	-2.040711424020992	0.01290006975617636	-0.3289323975213582	0.8015621565119856	-1.946570365342994	-1.946570365342689	0.3165894229407467	7.262574988339501e-05	-0.5218664864334579	-0.1690313151492241	-0.1710720851026031	0.01382125566119432	0.02686430615220043	-0.2847331770992582	-0.009514210198216227	-0.01309426554858037	0.218342373551066	-9.278725935462912	-45.59327582070053	-12.77624311527209	1.438054366160815	-1.033595823101282	-628.9808708866118	52.49616785411378	0.1237974345647832	0.5331547031351097	-0.5141076409629609	-0.9552374848424983	-0.1153096388993107	-0.2137903686341124	1.752324111704736	-1.297347919732794	-1.297347919732841	0.752872117056919	-0.06306319007522501	-0.6246352530460578	-0.250026996615837	4.102985139346482e-08	-1.519433747569229e-07	-2.854194184880868e-06	-1.3777367707757e-06	3.947677231220376e-07	4.406509831726726e-08	-1.779930372472293e-06
1.51	-0.1024390019503106	0.04300053935283651	0.8231907693200362	0.798027572808193	-0.2396055783742366	-0.09307542465988124	-0.6169185857083274	0.91287853787633	0.9128785378764214	0.0189485623947256	0.1745199551707984	0.2980439076179546	0.1136207897277165	0.518433146924727	0.2227547005431755	0.4927584042826446	-2.049543239033684	0.01169927616002965	-0.3318516224215804	0.8186447903348915	-1.958815125625368	-1.958815125625212	0.3235105887650292	-2.307409922004927e-06	-0.52789035232212	-0.1714775728198121	-0.1633920106930317	0.01191149522728154	0.02664234331693377	-0.2813837984225215	-0.007181596255983988	-0.01363022411817509	0.2114136327078009	-10.3136772488486	-44.55707371334821	-12.68394488043695	1.259274602202637	-1.182307694956484	-624.1205702599615	52.55280178657321	0.08734990325970936	0.5165251273770427	-0.5758147357754365	-0.8056638847158694	-0.1239801769361255	-0.3326060172799001	1.667744633661678	-1.147169299063882	-1.147169299086202	0.6561055341906533	0.0212280795970012	-0.5791914451956212	-0.2383749692596858	2.915345953038049e-08	-1.524480427492545e-07	-2.636171517684049e-06	-1.414174720031488e-06	3.724116788551322e-07	2.079214618327833e-08	-1.574804415720612e-06
1.52	-0.0972512463162428	0.04525360136665267	0.828088487447222	0.7774948955652179	-0.2394948548895533	-0.09640880626950497	-0.6086498060331789	0.8932359744623357	0.8932359744623537	0.02221732321928467	0.1745197019395153	0.2927368993172451	0.1118943555094689	0.5190405764647976	0.227827680351903	0.4866800249613253	-2.056715469055709	0.01043784428532984	-0.3348355459843461	0.8349878888009136	-1.969425054570705	-1.969425054570698	0.3302064233523797	-3.978222851891143e-05	-0.5334313857475563	-0.1737818231695762	-0.1557119362834637	0.0100017347933733	0.02642038048164538	-0.2780344197457861	-0.004848982313750199	-0.01416618268776179	0.2044848918645328	-11.35017010656517	-43.52286903519425	-12.59258813483167	1.081322519697653	-1.325515692336129	-619.281092663127	52.60275628654789	0.03078273131512741	0.4977058909170723	-0.6403289880681959	-0.6233204867090628	-0.1274372946099055	-0.2267301011428018	1.604417040328048	-0.9703816523252577	-0.9703816523252791	0.707805869670472	-0.05557152183354105	-0.5280687604010195	-0.2216255324510609	2.278869737597996e-08	-1.567114219371829e-07	-2.559305348596155e-06	-1.489097404574517e-06	3.66859486194365e-07	3.326026276323301e-10	-1.453678752750928e-06
1.53	-0.09205979151037169	0.04755646419967949	0.832922332311664	0.7568988734095468	-0.2393968901091549	-0.09977265184680256	-0.6002213569070189	0.8734955636914484	0.8734955636913955	0.02555150909243163	0.1745193623353223	0.2873770048522991	0.1101458604278785	0.5191693564064416	0.2327103779189013	0.4799905200211199	-2.06220473736691	0.009152063039949783	-0.337936675178553	0.8505698029939028	-1.97837391657865	-1.978373916578772	0.3365927869068655	-2.556577209057443e-05	-0.538459235553944	-0.175882286051149	-0.1479922475625444	0.008001190999177654	0.02607923102198593	-0.2749523038126339	-0.002312250102390452	-0.01468661012496864	0.1975400382908749	-12.38533852110175	-42.43932855819734	-12.48630685721668	0.9015137102954595	-1.516208432504471	-614.7083617503023	52.72227727047859	-0.008245882222907154	0.4784525885377655	-0.6980307310074795	-0.4691197206775928	-0.1300440123677361	-0.3522845054735729	1.515258593356177	-0.814665422365069	-0.814665422384523	0.5979593119780203	0.02991688481597146	-0.4768133936454997	-0.1996387155130946	2.228004178705589e-08	-1.649684317704328e-07	-2.632417958748992e-06	-1.604910120360239e-06	3.791613858651196e-07	-1.713769431352435e-08	-1.421803401924616e-06
1.54	-0.08686948320664079	0.04990713418816578	0.8376863282299017	0.736256480627297	-0.2393119622357829	-0.1031676047514243	-0.5916410526420139	0.8536741589110183	0.8536741589108852	0.02894834014386151	0.1745191646267771	0.2819694978287113	0.1083772843075719	0.5188112760355925	0.2373891114437961	0.4727102357204748	-2.065989594372195	0.007830462879939331	-0.3410570114493152	0.8653589165697541	-1.985623856480036	-1.985623856480289	0.3427354590069649	-1.140309826340357e-05	-0.5429538974758473	-0.1777980309128304	-0.1402725588416273	0.006000647204990747	0.02573808156227386	-0.2718701878794842	0.0002244821089721013	-0.0152070375621601	0.1905951847172146	-13.41538563060576	-41.35853132806493	-12.38218784778795	0.7239723816216876	-1.69554030312837	-610.1631560600465	52.82725807883821	-0.06658933118335215	0.4569130824962795	-0.7584848601561645	-0.2824382255259721	-0.1346010775359583	-0.2305715164538665	1.445856916900526	-0.6305972310138037	-0.6305972310138044	0.6590675787931572	-0.05558227835378547	-0.4214311835042711	-0.1846819284728022	2.069231629239215e-08	-1.716432559586811e-07	-2.669774056257856e-06	-1.707919767607659e-06	3.864295618012887e-07	-3.420444568610776e-08	-1.365256140268862e-06
1.55	-0.08168519096181895	0.05230349975751471	0.8423746420456475	0.715584841439095	-0.2392402844094706	-0.1065939983509146	-0.5829169049462735	0.8337888483168834	0.8337888483168577	0.03240510981044287	0.174519159033189	0.2765197776229235	0.1065906946738829	0.5179676465135714	0.2418421849240285	0.4648617126541707	-2.068047340561577	0.006502608788171257	-0.3442193992439937	0.8793273829180316	-1.991143241327961	-1.991143241328098	0.3485817795472158	1.589777038595613e-05	-0.5468981132044641	-0.179485585993715	-0.1326714027933735	0.004110429706051572	0.02525337917943462	-0.2687801165210111	0.00256121110577143	-0.01572067582318369	0.1837437896894334	-14.43647635856413	-40.36300406536918	-12.28974926682119	0.5479476732744994	-1.801675843380663	-605.9236316105598	52.917972738571	-0.1051963627623948	0.4333095979064076	-0.8116702519545821	-0.123831883969289	-0.1327304565309106	-0.3587697737798938	1.350855544904543	-0.4683592164626799	-0.4683592164452927	0.5414951533194837	0.03231639177439038	-0.3670216430014635	-0.1562840436104476	1.786131460198495e-08	-1.764951271211668e-07	-2.665932432676926e-06	-1.79617805327834e-06	3.878980125650008e-07	-5.080624238185676e-08	-1.280282546570492e-06
1.56	-0.0765117243322217	0.0547431570850901	0.8469817437863126	0.6949013469753377	-0.2391820557003822	-0.1100519553009134	-0.5740573697768269	0.8138571938533116	0.8138571938533941	0.03591915885475947	0.1745195124727502	0.2710333942847575	0.1047881311402423	0.5166461529894995	0.2460474630890887	0.456467820704375	-2.06836064948396	0.005140639435056037	-0.3473696815508743	0.8924364113108242	-1.99489263036712	-1.99489263036714	0.3541913345546044	6.040353103916048e-05	-0.5502865239515252	-0.1809928109031666	-0.1250702467451247	0.002220212207112462	0.02476867679662714	-0.2656900451625376	0.004897940102570443	-0.01623431408420808	0.1768923946616484	-15.4459161475587	-39.37055880969122	-12.20062808883259	0.3756262226059355	-1.8943741738485	-601.7156755632507	52.98504499118649	-0.1621621315933315	0.4073540194617188	-0.8675586368544959	0.06644922787394039	-0.1414241298053699	-0.2281504188943062	1.273969325803587	-0.2765980692604181	-0.2765980692604347	0.6117144722206954	-0.05214129995302955	-0.3102701871932654	-0.1486158941862318	2.919356395815343e-08	-1.462303401293177e-07	-2.475205472458095e-06	-1.54672869278248e-06	3.468433913792713e-07	-1.352258394973669e-08	-1.172203246047434e-06
